<?xml version="1.0" ?><svg enable-background="new 0 0 512 512" id="Layer_1" version="1.1" viewBox="0 0 512 512" xml:space="preserve" xmlns="http://www.w3.org/2000/svg" xmlns:xlink="http://www.w3.org/1999/xlink"><g><g><linearGradient gradientUnits="userSpaceOnUse" id="SVGID_1_" x1="-0.0000027" x2="512" y1="256" y2="256"><stop offset="0" style="stop-color:#3DDC84"/><stop offset="1" style="stop-color:#3DDC84"/></linearGradient><circle cx="256" cy="256" fill="url(#SVGID_1_)" r="256"/><linearGradient gradientUnits="userSpaceOnUse" id="SVGID_2_" x1="42.6666641" x2="469.3333435" y1="256.0005188" y2="256.0005188"><stop offset="0" style="stop-color:#3DDC84"/><stop offset="1" style="stop-color:#3DDC84"/></linearGradient><path d="M256,469.3338623c-117.631012,0-213.3333435-95.7018738-213.3333435-213.3333435    S138.368988,42.6671982,256,42.6671982c117.6362,0,213.3333435,95.7018661,213.3333435,213.333313    S373.6362,469.3338623,256,469.3338623z" fill="url(#SVGID_2_)"/></g><g><path d="M319.2559204,213.2645264c0-13.4426575-10.8985901-24.3413239-24.3413391-24.3413239H168.3413391    C154.8985901,188.9232025,144,199.8218689,144,213.2645264v101.4709473c0,13.4432068,10.8985901,24.3413391,24.3413391,24.3413391    h126.5732422c13.442749,0,24.3413391-10.8981323,24.3413391-24.3413391v-19.046936l32.0704041,15.8650513v-95.1082611    l-32.0704041,15.8656006V213.2645264z M214.8969879,291.0533447v-54.1061401L257.4927368,264L214.8969879,291.0533447z" opacity="0.3"/><polygon opacity="0.3" points="361.3263245,211.4976044 361.3263245,316.5007935 384,327.7173462 384,200.2805328   "/></g><g><path d="M311.2559204,205.2645264c0-13.4426575-10.8985901-24.3413239-24.3413391-24.3413239H160.3413391    C146.8985901,180.9232025,136,191.8218689,136,205.2645264v101.4709473c0,13.4432068,10.8985901,24.3413391,24.3413391,24.3413391    h126.5732422c13.442749,0,24.3413391-10.8981323,24.3413391-24.3413391v-19.046936l32.0704041,15.8650513v-95.1082611    l-32.0704041,15.8656006V205.2645264z M206.8969879,283.0533447v-54.1061401L249.4927216,256L206.8969879,283.0533447z" fill="#FFFFFF"/><polygon fill="#FFFFFF" points="353.3263245,203.4976044 353.3263245,308.5007935 376,319.7173462 376,192.2805328   "/></g></g></svg>